<?xml version="1.0" encoding="UTF-8" ?>
<!DOCTYPE svg PUBLIC "-//W3C//DTD SVG 1.1//EN" "http://www.w3.org/Graphics/SVG/1.1/DTD/svg11.dtd">
<svg width="1192pt" height="839pt" viewBox="0 0 1192 839" version="1.1" xmlns="http://www.w3.org/2000/svg">
<path fill="#ffffff" d=" M 0.00 0.00 L 1192.00 0.00 L 1192.00 839.00 L 0.00 839.00 L 0.00 0.00 Z" />
<path fill="#585e63" d=" M 442.81 187.09 C 449.65 188.09 456.66 189.46 462.39 193.59 C 470.79 198.79 476.26 207.74 478.96 217.08 C 482.17 226.74 481.05 238.09 488.25 246.13 C 495.70 243.90 503.09 241.00 509.36 236.31 C 514.32 232.24 518.32 227.10 521.59 221.60 C 528.38 209.73 539.01 199.11 552.57 195.62 C 557.16 194.55 562.06 193.81 566.69 195.02 C 569.68 196.24 569.57 199.87 568.40 202.36 C 564.60 203.68 560.50 203.62 556.65 204.72 C 548.88 206.88 541.99 211.67 536.83 217.81 C 531.24 224.23 528.68 232.64 523.08 239.06 C 516.15 247.94 505.85 253.55 495.11 256.45 C 503.94 258.70 512.58 262.44 519.52 268.44 C 527.59 275.74 534.45 284.70 537.92 295.12 C 540.27 301.95 538.93 309.25 538.10 316.23 C 536.46 329.06 533.29 341.62 530.17 354.14 C 527.34 362.75 525.26 371.71 520.73 379.64 C 513.73 392.54 505.38 404.72 495.84 415.87 C 487.33 424.68 480.16 434.84 470.37 442.36 C 461.62 449.96 450.87 456.08 439.02 456.34 C 430.07 456.87 421.41 453.65 413.76 449.28 C 403.06 443.57 395.80 432.70 392.79 421.14 C 389.69 411.02 390.47 400.33 391.08 389.93 C 391.45 383.12 393.34 376.54 394.49 369.85 C 397.25 354.39 403.49 339.79 411.08 326.13 C 418.01 311.67 426.18 297.73 436.10 285.10 C 444.95 274.29 455.38 264.67 467.19 257.16 C 471.14 254.53 476.02 254.47 480.49 253.31 C 477.90 248.17 474.88 243.18 473.30 237.60 C 471.13 230.58 471.31 223.06 469.05 216.06 C 466.69 208.35 460.57 201.68 452.74 199.40 C 449.28 198.12 444.67 197.83 442.86 194.09 C 441.53 191.93 442.47 189.38 442.81 187.09 Z" />
<path fill="#ffffff" d=" M 469.19 273.17 C 475.68 271.60 481.04 266.42 487.98 266.69 C 495.04 267.05 502.38 267.88 508.65 271.39 C 516.14 275.41 521.11 282.77 524.82 290.18 C 529.43 299.83 526.21 310.73 524.63 320.72 C 521.01 337.61 517.54 354.70 510.63 370.63 C 504.67 385.52 494.59 398.23 484.34 410.38 C 474.66 420.99 465.76 432.68 453.50 440.52 C 448.26 444.08 442.31 447.03 435.90 447.47 C 430.40 447.24 425.21 444.96 420.39 442.47 C 410.97 437.47 406.57 427.07 403.93 417.30 C 405.60 418.37 407.21 419.60 409.10 420.29 C 412.27 420.12 414.91 418.11 417.58 416.59 C 428.15 410.28 438.50 402.45 444.40 391.38 C 448.28 384.70 451.29 377.57 454.88 370.75 C 460.34 360.52 463.89 349.44 467.53 338.48 C 470.88 327.70 478.02 318.69 484.99 310.01 C 490.74 302.72 497.81 296.48 505.81 291.79 C 509.36 289.64 513.58 289.06 517.19 287.07 C 518.81 284.14 517.41 280.20 514.80 278.32 C 506.23 278.24 498.53 282.84 491.99 287.96 C 482.35 295.34 474.94 305.14 467.92 314.93 C 457.61 329.28 454.91 347.26 446.58 362.61 C 441.89 371.25 438.12 380.44 432.50 388.55 C 424.89 398.46 414.12 405.29 403.11 410.88 C 402.97 384.95 407.93 358.49 420.67 335.68 C 429.84 317.11 439.92 298.48 454.90 283.89 C 459.21 279.79 463.06 274.54 469.19 273.17 Z" />
<path fill="#585e63" d=" M 239.39 310.43 C 245.27 309.65 251.20 310.83 256.89 312.30 C 262.34 313.70 266.66 317.59 270.62 321.40 C 276.01 326.66 278.82 333.82 281.20 340.81 C 283.51 347.63 282.50 354.92 282.34 361.96 C 282.13 372.69 279.27 383.12 276.48 393.41 C 269.12 415.97 254.66 436.84 234.02 449.07 C 222.41 454.12 208.83 457.15 196.60 452.41 C 184.32 448.68 176.57 437.10 172.33 425.62 C 169.98 417.65 168.41 409.31 168.90 400.97 C 169.37 391.71 169.52 382.28 172.38 373.37 C 174.61 366.50 177.12 359.70 180.19 353.16 C 186.47 341.27 196.81 332.36 207.01 323.94 C 211.05 320.63 215.83 318.44 220.70 316.67 C 226.85 314.39 232.79 311.24 239.39 310.43 Z" />
<path fill="#585e63" d=" M 403.53 311.62 C 405.38 312.63 407.90 313.27 408.51 315.59 C 410.67 320.61 407.26 325.58 404.76 329.75 C 399.64 337.36 394.06 345.56 385.25 349.18 C 380.16 351.24 374.88 352.82 369.78 354.84 C 359.16 359.18 347.44 358.79 336.39 361.41 C 326.16 363.92 315.18 365.86 306.86 372.83 C 300.92 377.93 295.04 383.56 291.91 390.88 C 289.86 395.65 287.81 400.43 285.03 404.82 C 282.44 403.65 278.81 402.91 278.24 399.60 C 276.95 396.63 278.76 393.73 280.08 391.15 C 282.43 386.78 284.11 382.07 286.89 377.94 C 290.57 372.39 295.71 368.05 300.68 363.69 C 310.24 355.97 322.65 353.94 334.28 351.25 C 340.57 349.95 346.96 349.24 353.28 348.07 C 360.30 346.78 366.85 343.82 373.61 341.60 C 378.34 340.03 383.24 338.42 387.09 335.09 C 394.40 328.74 399.26 320.18 403.53 311.62 Z" />
<path fill="#ffffff" d=" M 238.89 324.87 C 244.57 322.41 250.93 322.82 256.94 323.35 C 259.48 323.46 261.58 324.99 263.59 326.37 C 243.08 332.79 228.64 351.28 221.94 371.07 C 218.53 382.11 214.72 393.10 209.29 403.32 C 206.29 408.46 202.41 413.05 198.23 417.26 C 194.64 420.89 189.41 421.82 185.20 424.46 C 183.45 428.63 188.05 434.56 192.61 432.78 C 203.21 429.58 211.11 421.01 216.88 411.91 C 224.91 397.37 227.84 380.74 234.95 365.80 C 239.13 356.36 246.68 348.95 254.77 342.76 C 258.91 339.62 263.91 337.82 267.91 334.46 C 269.05 337.87 270.39 341.28 270.66 344.91 C 271.42 357.37 270.25 369.95 266.94 382.00 C 261.35 405.81 247.03 428.04 225.95 440.91 C 219.00 444.53 210.93 446.04 203.13 445.69 C 193.53 444.99 186.56 436.75 183.94 428.04 C 181.73 420.22 179.64 412.21 179.83 404.02 C 180.06 394.98 179.68 385.65 183.09 377.09 C 185.51 371.17 187.73 365.16 190.41 359.35 C 194.82 351.45 201.43 345.06 208.31 339.31 C 210.83 337.23 213.08 334.74 215.96 333.14 C 218.57 332.21 221.50 333.09 224.11 332.09 C 229.24 330.12 233.85 327.03 238.89 324.87 Z" />
<path fill="#585e63" d=" M 844.24 647.99 C 844.41 637.93 843.97 627.86 844.53 617.81 C 845.08 651.19 844.52 684.60 844.81 717.99 C 844.66 734.99 844.87 752.00 844.75 769.01 C 844.85 780.68 844.22 792.33 844.46 804.00 C 844.45 810.12 844.62 816.26 844.14 822.38 C 842.98 819.29 842.26 815.99 842.84 812.69 C 844.06 804.39 843.22 795.99 843.83 787.65 C 844.73 777.12 844.05 766.56 844.25 756.01 C 844.19 720.01 844.30 684.00 844.24 647.99 Z" />
</svg>
