<?xml version="1.0" encoding="UTF-8" standalone="no"?>
<svg
   xmlns:dc="http://purl.org/dc/elements/1.1/"
   xmlns:cc="http://creativecommons.org/ns#"
   xmlns:rdf="http://www.w3.org/1999/02/22-rdf-syntax-ns#"
   xmlns:svg="http://www.w3.org/2000/svg"
   xmlns="http://www.w3.org/2000/svg"
   xmlns:sodipodi="http://sodipodi.sourceforge.net/DTD/sodipodi-0.dtd"
   xmlns:inkscape="http://www.inkscape.org/namespaces/inkscape"
   width="1192pt"
   height="839pt"
   viewBox="0 0 1192 839"
   version="1.1"
   id="svg4162"
   inkscape:version="0.91 r13725"
   sodipodi:docname="kolobka hneda.svg">
  <metadata
     id="metadata4182">
    <rdf:RDF>
      <cc:Work
         rdf:about="">
        <dc:format>image/svg+xml</dc:format>
        <dc:type
           rdf:resource="http://purl.org/dc/dcmitype/StillImage" />
        <dc:title></dc:title>
      </cc:Work>
    </rdf:RDF>
  </metadata>
  <defs
     id="defs4180">
    <clipPath
       clipPathUnits="userSpaceOnUse"
       id="clipPath4223">
      <rect
         style="opacity:0.7;fill:#8b4513;fill-opacity:1;stroke:#ffffff;stroke-width:2.4000001;stroke-linecap:round;stroke-linejoin:round;stroke-miterlimit:4;stroke-dasharray:none;stroke-dashoffset:0"
         id="rect4225"
         width="447.97244"
         height="294.69269"
         x="147.34636"
         y="174.45807"
         ry="7.8677195e-016" />
    </clipPath>
  </defs>
  <sodipodi:namedview
     pagecolor="#ffffff"
     bordercolor="#666666"
     borderopacity="1"
     objecttolerance="10"
     gridtolerance="10"
     guidetolerance="10"
     inkscape:pageopacity="0"
     inkscape:pageshadow="2"
     inkscape:window-width="1366"
     inkscape:window-height="706"
     id="namedview4178"
     showgrid="false"
     inkscape:zoom="0.80897829"
     inkscape:cx="351.1952"
     inkscape:cy="627.83756"
     inkscape:window-x="-8"
     inkscape:window-y="-8"
     inkscape:window-maximized="1"
     inkscape:current-layer="svg4162" />
  <path
     d="m 112.48756,151.05473 1192.00004,0 0,839 -1192.00004,0 0,-839 z"
     id="path4164"
     style="fill:#8b4513;fill-opacity:0.98089169"
     inkscape:connector-curvature="0"
     clip-path="url(#clipPath4223)" />
  <path
     fill="#585e63"
     d=" M 442.81 187.09 C 449.65 188.09 456.66 189.46 462.39 193.59 C 470.79 198.79 476.26 207.74 478.96 217.08 C 482.17 226.74 481.05 238.09 488.25 246.13 C 495.70 243.90 503.09 241.00 509.36 236.31 C 514.32 232.24 518.32 227.10 521.59 221.60 C 528.38 209.73 539.01 199.11 552.57 195.62 C 557.16 194.55 562.06 193.81 566.69 195.02 C 569.68 196.24 569.57 199.87 568.40 202.36 C 564.60 203.68 560.50 203.62 556.65 204.72 C 548.88 206.88 541.99 211.67 536.83 217.81 C 531.24 224.23 528.68 232.64 523.08 239.06 C 516.15 247.94 505.85 253.55 495.11 256.45 C 503.94 258.70 512.58 262.44 519.52 268.44 C 527.59 275.74 534.45 284.70 537.92 295.12 C 540.27 301.95 538.93 309.25 538.10 316.23 C 536.46 329.06 533.29 341.62 530.17 354.14 C 527.34 362.75 525.26 371.71 520.73 379.64 C 513.73 392.54 505.38 404.72 495.84 415.87 C 487.33 424.68 480.16 434.84 470.37 442.36 C 461.62 449.96 450.87 456.08 439.02 456.34 C 430.07 456.87 421.41 453.65 413.76 449.28 C 403.06 443.57 395.80 432.70 392.79 421.14 C 389.69 411.02 390.47 400.33 391.08 389.93 C 391.45 383.12 393.34 376.54 394.49 369.85 C 397.25 354.39 403.49 339.79 411.08 326.13 C 418.01 311.67 426.18 297.73 436.10 285.10 C 444.95 274.29 455.38 264.67 467.19 257.16 C 471.14 254.53 476.02 254.47 480.49 253.31 C 477.90 248.17 474.88 243.18 473.30 237.60 C 471.13 230.58 471.31 223.06 469.05 216.06 C 466.69 208.35 460.57 201.68 452.74 199.40 C 449.28 198.12 444.67 197.83 442.86 194.09 C 441.53 191.93 442.47 189.38 442.81 187.09 Z"
     id="path4166"
     style="fill:#ffffff;fill-opacity:1" />
  <path
     fill="#ffffff"
     d=" M 469.19 273.17 C 475.68 271.60 481.04 266.42 487.98 266.69 C 495.04 267.05 502.38 267.88 508.65 271.39 C 516.14 275.41 521.11 282.77 524.82 290.18 C 529.43 299.83 526.21 310.73 524.63 320.72 C 521.01 337.61 517.54 354.70 510.63 370.63 C 504.67 385.52 494.59 398.23 484.34 410.38 C 474.66 420.99 465.76 432.68 453.50 440.52 C 448.26 444.08 442.31 447.03 435.90 447.47 C 430.40 447.24 425.21 444.96 420.39 442.47 C 410.97 437.47 406.57 427.07 403.93 417.30 C 405.60 418.37 407.21 419.60 409.10 420.29 C 412.27 420.12 414.91 418.11 417.58 416.59 C 428.15 410.28 438.50 402.45 444.40 391.38 C 448.28 384.70 451.29 377.57 454.88 370.75 C 460.34 360.52 463.89 349.44 467.53 338.48 C 470.88 327.70 478.02 318.69 484.99 310.01 C 490.74 302.72 497.81 296.48 505.81 291.79 C 509.36 289.64 513.58 289.06 517.19 287.07 C 518.81 284.14 517.41 280.20 514.80 278.32 C 506.23 278.24 498.53 282.84 491.99 287.96 C 482.35 295.34 474.94 305.14 467.92 314.93 C 457.61 329.28 454.91 347.26 446.58 362.61 C 441.89 371.25 438.12 380.44 432.50 388.55 C 424.89 398.46 414.12 405.29 403.11 410.88 C 402.97 384.95 407.93 358.49 420.67 335.68 C 429.84 317.11 439.92 298.48 454.90 283.89 C 459.21 279.79 463.06 274.54 469.19 273.17 Z"
     id="path4168"
     style="fill:#8b4513;fill-opacity:1" />
  <path
     d="m 237.44615,312.36931 c 5.88,-0.78 11.81,0.4 17.5,1.87 5.45,1.4 9.77,5.29 13.73,9.1 5.39,5.26 8.2,12.42 10.58,19.41 2.31,6.82 1.3,14.11 1.14,21.15 -0.21,10.73 -3.07,21.16 -5.86,31.45 -7.36,22.56 -21.82,43.43 -42.46,55.66 -11.61,5.05 -25.19,8.08 -37.42,3.34 -12.28001,-3.73 -20.03001,-15.31 -24.27001,-26.79 -2.35,-7.97 -3.92,-16.31 -3.43,-24.65 0.47,-9.26 0.62,-18.69 3.48,-27.6 2.23,-6.87 4.74,-13.67 7.81,-20.21 6.28,-11.89 16.62001,-20.8 26.82001,-29.22 4.04,-3.31 8.82,-5.5 13.69,-7.27 6.15,-2.28 12.09,-5.43 18.69,-6.24 z"
     id="path4170"
     inkscape:connector-curvature="0"
     style="fill:#ffffff;fill-opacity:1" />
  <path
     fill="#585e63"
     d=" M 403.53 311.62 C 405.38 312.63 407.90 313.27 408.51 315.59 C 410.67 320.61 407.26 325.58 404.76 329.75 C 399.64 337.36 394.06 345.56 385.25 349.18 C 380.16 351.24 374.88 352.82 369.78 354.84 C 359.16 359.18 347.44 358.79 336.39 361.41 C 326.16 363.92 315.18 365.86 306.86 372.83 C 300.92 377.93 295.04 383.56 291.91 390.88 C 289.86 395.65 287.81 400.43 285.03 404.82 C 282.44 403.65 278.81 402.91 278.24 399.60 C 276.95 396.63 278.76 393.73 280.08 391.15 C 282.43 386.78 284.11 382.07 286.89 377.94 C 290.57 372.39 295.71 368.05 300.68 363.69 C 310.24 355.97 322.65 353.94 334.28 351.25 C 340.57 349.95 346.96 349.24 353.28 348.07 C 360.30 346.78 366.85 343.82 373.61 341.60 C 378.34 340.03 383.24 338.42 387.09 335.09 C 394.40 328.74 399.26 320.18 403.53 311.62 Z"
     id="path4172"
     style="fill:#ffffff;fill-opacity:1" />
  <path
     d="m 236.73578,325.36136 c 5.68,-2.46 12.04,-2.05 18.05,-1.52 2.54,0.11 4.64,1.64 6.65,3.02 -20.51,6.42 -34.16881,22.17583 -40.86881,41.96583 -3.41,11.04 -8.00119,24.76417 -13.43119,34.98417 -3,5.14 -6.88,9.73 -11.06,13.94 -3.59,3.63 -8.82,4.56 -13.03001,7.2 -1.74999,4.17 2.85001,10.1 7.41001,8.32 10.6,-3.2 18.5,-11.77 24.27,-20.87 8.03,-14.54 10.96,-31.17 18.07,-46.11 4.18,-9.44 11.73,-16.85 19.82,-23.04 4.14,-3.14 9.14,-4.94 13.14,-8.3 1.14,3.41 2.48,6.82 2.75,10.45 0.76,12.46 -0.41,25.04 -3.72,37.09 -5.59,23.81 -19.91,46.04 -40.99,58.91 -6.95,3.62 -15.02,5.13 -22.82,4.78 -9.6,-0.7 -16.57,-8.94 -19.19,-17.65 -2.21,-7.82 -4.3,-15.83 -4.11,-24.02 0.23,-9.04 -0.15,-18.37 3.26,-26.93 2.41999,-5.92 4.64,-11.93 7.32,-17.74 4.41,-7.9 11.02,-14.29 17.9,-20.04 2.52,-2.08 4.77,-4.57 7.65,-6.17 2.61,-0.93 5.54,-0.05 8.15,-1.05 5.13,-1.97 9.74,-5.06 14.78,-7.22 z"
     id="path4174"
     inkscape:connector-curvature="0"
     style="fill:#8b4513;fill-opacity:1"
     sodipodi:nodetypes="cccccccccccccccccccccccc" />
  <path
     fill="#585e63"
     d=" M 844.24 647.99 C 844.41 637.93 843.97 627.86 844.53 617.81 C 845.08 651.19 844.52 684.60 844.81 717.99 C 844.66 734.99 844.87 752.00 844.75 769.01 C 844.85 780.68 844.22 792.33 844.46 804.00 C 844.45 810.12 844.62 816.26 844.14 822.38 C 842.98 819.29 842.26 815.99 842.84 812.69 C 844.06 804.39 843.22 795.99 843.83 787.65 C 844.73 777.12 844.05 766.56 844.25 756.01 C 844.19 720.01 844.30 684.00 844.24 647.99 Z"
     id="path4176" />
</svg>
